<svg width="40" height="40" viewBox="0 0 40 40" fill="none" xmlns="http://www.w3.org/2000/svg">
<path d="M35.1241 20.196L38.1861 25.5C40.1201 28.848 38.9721 33.13 35.6261 35.062C34.5601 35.676 33.3541 36 32.1261 36H28.0001V40L18.0001 33L28.0001 26V30H32.1241C32.3001 30 32.4721 29.954 32.6241 29.866C33.0501 29.62 33.2261 29.11 33.0661 28.664L32.9901 28.5L29.9281 23.196L35.1241 20.196ZM11.4741 14.768L12.5341 26.928L9.07411 24.928L7.01011 28.5C6.92211 28.652 6.87611 28.824 6.87611 29C6.87611 29.49 7.23011 29.9 7.69611 29.984L7.87611 30H14.0001V36H7.87611C4.01011 36 0.876109 32.866 0.876109 29C0.876109 27.772 1.20011 26.564 1.81411 25.5L3.87611 21.928L0.412109 19.928L11.4721 14.768H11.4741ZM23.5001 1.93801C24.5641 2.55201 25.4481 3.43601 26.0621 4.50001L28.1221 8.07201L31.5881 6.07201L30.5281 18.232L19.4641 13.072L22.9281 11.072L20.8661 7.50001C20.7781 7.34801 20.6521 7.22001 20.5001 7.13401C20.0741 6.88801 19.5441 6.99001 19.2381 7.35401L19.1341 7.50001L16.0741 12.804L10.8761 9.80401L13.9361 4.50001C15.8701 1.15201 20.1521 0.0040068 23.5001 1.93801Z" fill="#55B4E4"/>
</svg>
