<svg width="35" height="35" viewBox="0 0 35 35" fill="none" xmlns="http://www.w3.org/2000/svg">
<path d="M31.2334 17.1713L33.9126 21.8123C35.6049 24.7418 34.6004 28.4886 31.6726 30.1791C30.7399 30.7163 29.6846 30.9998 28.6101 30.9998H24.9999V34.4998L16.2499 28.3748L24.9999 22.2498V25.7498H28.6084C28.7624 25.7498 28.9129 25.7096 29.0459 25.6326C29.4186 25.4173 29.5726 24.9711 29.4326 24.5808L29.3661 24.4373L26.6869 19.7963L31.2334 17.1713ZM10.5396 12.4218L11.4671 23.0618L8.4396 21.3118L6.6336 24.4373C6.5566 24.5703 6.51635 24.7208 6.51635 24.8748C6.51635 25.3036 6.8261 25.6623 7.23385 25.7358L7.39135 25.7498H12.7499V30.9998H7.39135C4.0086 30.9998 1.26635 28.2576 1.26635 24.8748C1.26635 23.8003 1.54985 22.7433 2.0871 21.8123L3.89135 18.6868L0.860352 16.9368L10.5379 12.4218H10.5396ZM21.0624 1.19557C21.9934 1.73282 22.7669 2.50632 23.3041 3.43732L25.1066 6.56282L28.1394 4.81282L27.2119 15.4528L17.5309 10.9378L20.5619 9.18782L18.7576 6.06232C18.6806 5.92932 18.5704 5.81732 18.4374 5.74207C18.0646 5.52682 17.6009 5.61607 17.3331 5.93457L17.2421 6.06232L14.5646 10.7033L10.0164 8.07832L12.6939 3.43732C14.3861 0.507822 18.1329 -0.496677 21.0624 1.19557Z" fill="white"/>
</svg>
