<svg width="12" height="14" viewBox="0 0 12 14" fill="none" xmlns="http://www.w3.org/2000/svg">
<path d="M10 10.3334H2V9.00004H10V10.3334ZM10 7.66671H2V6.33337H10V7.66671ZM10 5.00004H2V3.66671H10V5.00004ZM0 13.6667L1 12.6667L2 13.6667L3 12.6667L4 13.6667L5 12.6667L6 13.6667L7 12.6667L8 13.6667L9 12.6667L10 13.6667L11 12.6667L12 13.6667V0.333374L11 1.33337L10 0.333374L9 1.33337L8 0.333374L7 1.33337L6 0.333374L5 1.33337L4 0.333374L3 1.33337L2 0.333374L1 1.33337L0 0.333374V13.6667Z" fill="#20C9AC"/>
</svg>
