<svg width="60" height="62" viewBox="0 0 60 62" fill="none" xmlns="http://www.w3.org/2000/svg">
<path fill-rule="evenodd" clip-rule="evenodd" d="M43.623 13.9492H44.2546C52.5549 13.9492 59.2913 20.8867 59.2913 29.3967V46.4168C59.2913 54.9268 52.5549 61.8334 44.2546 61.8334H15.7448C7.44449 61.8334 0.708008 54.9268 0.708008 46.4168V29.3967C0.708008 20.8867 7.44449 13.9492 15.7448 13.9492H16.3763C16.4365 10.2492 17.8499 6.79591 20.4062 4.20591C22.9925 1.58508 26.3006 0.259248 30.0297 0.166748C37.488 0.166748 43.5328 6.33341 43.623 13.9492ZM23.5639 7.50508C21.8798 9.23175 20.9475 11.5134 20.8874 13.9492H39.112C39.0218 8.89258 34.9919 4.79175 30.0297 4.79175C27.7141 4.79175 25.3082 5.74758 23.5639 7.50508ZM41.4276 25.8201C42.6907 25.8201 43.6832 24.7717 43.6832 23.5076V19.9309C43.6832 18.6667 42.6907 17.6184 41.4276 17.6184C40.1946 17.6184 39.1721 18.6667 39.1721 19.9309V23.5076C39.1721 24.7717 40.1946 25.8201 41.4276 25.8201ZM20.5566 23.5076C20.5566 24.7717 19.5641 25.8201 18.3011 25.8201C17.068 25.8201 16.0455 24.7717 16.0455 23.5076V19.9309C16.0455 18.6667 17.068 17.6184 18.3011 17.6184C19.5641 17.6184 20.5566 18.6667 20.5566 19.9309V23.5076Z" fill="#FE7F75"/>
</svg>
