<svg width="40" height="40" viewBox="0 0 40 40" fill="none" xmlns="http://www.w3.org/2000/svg">
<path d="M33.5005 11.5668C33.5005 12.4668 33.0172 13.2835 32.2505 13.7002L29.3505 15.2668L26.8838 16.5835L21.7672 19.3502C21.2172 19.6502 20.6172 19.8002 20.0005 19.8002C19.3838 19.8002 18.7838 19.6502 18.2338 19.3502L7.75049 13.7002C6.98382 13.2835 6.50049 12.4668 6.50049 11.5668C6.50049 10.6668 6.98382 9.85016 7.75049 9.4335L11.0338 7.66683L13.6505 6.25016L18.2338 3.7835C19.3338 3.1835 20.6672 3.1835 21.7672 3.7835L32.2505 9.4335C33.0172 9.85016 33.5005 10.6668 33.5005 11.5668Z" fill="white"/>
<path d="M16.4999 21.3164L6.74987 16.4497C5.99987 16.0664 5.1332 16.1164 4.41654 16.5497C3.69987 16.9831 3.2832 17.7497 3.2832 18.5831V27.7997C3.2832 29.3997 4.16654 30.8331 5.59987 31.5497L15.3499 36.4164C15.6832 36.5831 16.0499 36.6664 16.4165 36.6664C16.8499 36.6664 17.2832 36.5497 17.6665 36.2997C18.3832 35.8664 18.7999 35.0997 18.7999 34.2664V25.0497C18.8165 23.4664 17.9332 22.0331 16.4999 21.3164Z" fill="white"/>
<path d="M36.7164 18.5834V27.8C36.7164 29.3834 35.8331 30.8167 34.3998 31.5334L24.6498 36.4167C24.3164 36.5834 23.9498 36.6667 23.5831 36.6667C23.1498 36.6667 22.7164 36.55 22.3164 36.3C21.6164 35.8667 21.1831 35.1 21.1831 34.2667V25.0667C21.1831 23.4667 22.0664 22.0334 23.4998 21.3167L27.0831 19.5334L29.5831 18.2834L33.2498 16.45C33.9998 16.0667 34.8664 16.1 35.5831 16.55C36.2831 16.9834 36.7164 17.75 36.7164 18.5834Z" fill="white"/>
<path d="M29.3499 15.2667L26.8832 16.5833L11.0332 7.66667L13.6499 6.25L28.9499 14.8833C29.1165 14.9833 29.2499 15.1167 29.3499 15.2667Z" fill="white"/>
<path d="M29.5835 18.2832V22.0665C29.5835 22.7499 29.0168 23.3165 28.3335 23.3165C27.6502 23.3165 27.0835 22.7499 27.0835 22.0665V19.5332L29.5835 18.2832Z" fill="white"/>
</svg>
