<svg width="38" height="38" viewBox="0 0 38 38" fill="none" xmlns="http://www.w3.org/2000/svg">
<path d="M34.5324 6.23815C32.4583 11.4156 27.7241 18.1765 23.2116 22.594C22.5624 18.509 19.3007 15.3106 15.1841 14.7407C19.6174 10.2123 26.4257 5.41482 31.6191 3.32482C32.5374 2.97648 33.4557 3.24565 34.0257 3.81565C34.6274 4.41732 34.9124 5.31982 34.5324 6.23815Z" fill="white"/>
<path d="M21.8183 23.8927C21.5016 24.1618 21.1849 24.431 20.8683 24.6843L18.0341 26.9485C18.0341 26.901 18.0183 26.8377 18.0183 26.7743C17.7966 25.0802 17.0049 23.5127 15.7224 22.2302C14.4241 20.9318 12.8091 20.1402 11.0358 19.9185C10.9883 19.9185 10.9249 19.9027 10.8774 19.9027L13.1733 17.0052C13.3949 16.7202 13.6324 16.451 13.8858 16.166L14.9624 16.3085C18.3666 16.7835 21.1058 19.4593 21.6441 22.8477L21.8183 23.8927Z" fill="white"/>
<path d="M16.5141 27.8981C16.5141 29.6398 15.8491 31.3023 14.5825 32.5531C13.6166 33.5348 12.3183 34.1998 10.735 34.3898L6.85579 34.8173C4.73412 35.0548 2.91329 33.234 3.15079 31.0965L3.57829 27.2015C3.95829 23.734 6.85579 21.5173 9.92745 21.454C10.2283 21.4381 10.5608 21.454 10.8775 21.4856C12.2233 21.6598 13.5216 22.2773 14.6141 23.354C15.675 24.4148 16.2766 25.6656 16.4508 26.9798C16.4825 27.2965 16.5141 27.5973 16.5141 27.8981Z" fill="white"/>
</svg>
