<svg width="20" height="21" viewBox="0 0 20 21" fill="none" xmlns="http://www.w3.org/2000/svg">
<path d="M18.2783 14H5.32619C5.08082 14 4.84551 13.8946 4.67201 13.7071C4.49851 13.5196 4.40104 13.2652 4.40104 13C4.40104 12.7348 4.49851 12.4804 4.67201 12.2929C4.84551 12.1054 5.08082 12 5.32619 12H14.9848C15.6034 12 16.2042 11.7767 16.692 11.3654C17.1797 10.9542 17.5264 10.3786 17.6769 9.73L19.2034 3.24C19.2381 3.09241 19.2411 2.93821 19.2122 2.78917C19.1834 2.64013 19.1234 2.50018 19.0369 2.38C18.9469 2.25673 18.8314 2.1581 18.6996 2.09208C18.5678 2.02606 18.4235 1.99452 18.2783 2H5.10415C4.91328 1.41645 4.5601 0.910998 4.09302 0.552938C3.62595 0.194879 3.06785 0.00173951 2.49523 0H1.62559C1.38022 0 1.14491 0.105357 0.971409 0.292893C0.79791 0.48043 0.700439 0.734784 0.700439 1C0.700439 1.26522 0.79791 1.51957 0.971409 1.70711C1.14491 1.89464 1.38022 2 1.62559 2H2.49523C2.70657 1.99334 2.91364 2.06513 3.08196 2.20341C3.25029 2.34169 3.36973 2.53812 3.42038 2.76L3.47589 3.24L5.0764 10C4.3403 10.0358 3.64751 10.3862 3.15044 10.9741C2.65336 11.5621 2.39272 12.3394 2.42584 13.135C2.45897 13.9306 2.78315 14.6795 3.32707 15.2168C3.87099 15.7541 4.59009 16.0358 5.32619 16H5.49271C5.34056 16.4531 5.29167 16.9392 5.35018 17.4171C5.40869 17.895 5.57288 18.3506 5.82884 18.7454C6.0848 19.1401 6.425 19.4624 6.82063 19.6849C7.21626 19.9074 7.65566 20.0235 8.10164 20.0235C8.54761 20.0235 8.98701 19.9074 9.38264 19.6849C9.77827 19.4624 10.1185 19.1401 10.3744 18.7454C10.6304 18.3506 10.7946 17.895 10.8531 17.4171C10.9116 16.9392 10.8627 16.4531 10.7106 16H12.8939C12.7418 16.4531 12.6929 16.9392 12.7514 17.4171C12.8099 17.895 12.9741 18.3506 13.23 18.7454C13.486 19.1401 13.8262 19.4624 14.2218 19.6849C14.6175 19.9074 15.0569 20.0235 15.5028 20.0235C15.9488 20.0235 16.3882 19.9074 16.7838 19.6849C17.1795 19.4624 17.5197 19.1401 17.7756 18.7454C18.0316 18.3506 18.1958 17.895 18.2543 17.4171C18.3128 16.9392 18.2639 16.4531 18.1118 16H18.2783C18.5236 16 18.759 15.8946 18.9325 15.7071C19.106 15.5196 19.2034 15.2652 19.2034 15C19.2034 14.7348 19.106 14.4804 18.9325 14.2929C18.759 14.1054 18.5236 14 18.2783 14ZM17.0941 4L15.8821 9.24C15.8315 9.46188 15.7121 9.65831 15.5437 9.79659C15.3754 9.93487 15.1683 10.0067 14.957 10H6.97295L5.58523 4H17.0941ZM8.10164 18C7.91866 18 7.73979 17.9414 7.58765 17.8315C7.43551 17.7216 7.31693 17.5654 7.24691 17.3827C7.17689 17.2 7.15857 16.9989 7.19426 16.8049C7.22996 16.6109 7.31807 16.4327 7.44746 16.2929C7.57684 16.153 7.74169 16.0578 7.92115 16.0192C8.10061 15.9806 8.28663 16.0004 8.45568 16.0761C8.62473 16.1518 8.76921 16.28 8.87087 16.4444C8.97253 16.6089 9.02679 16.8022 9.02679 17C9.02679 17.2652 8.92932 17.5196 8.75582 17.7071C8.58232 17.8946 8.347 18 8.10164 18ZM15.5028 18C15.3199 18 15.141 17.9414 14.9888 17.8315C14.8367 17.7216 14.7181 17.5654 14.6481 17.3827C14.5781 17.2 14.5598 16.9989 14.5955 16.8049C14.6312 16.6109 14.7193 16.4327 14.8487 16.2929C14.978 16.153 15.1429 16.0578 15.3223 16.0192C15.5018 15.9806 15.6878 16.0004 15.8569 16.0761C16.0259 16.1518 16.1704 16.28 16.2721 16.4444C16.3737 16.6089 16.428 16.8022 16.428 17C16.428 17.2652 16.3305 17.5196 16.157 17.7071C15.9835 17.8946 15.7482 18 15.5028 18Z" fill="white"/>
</svg>
