<svg width="60" height="60" viewBox="0 0 60 60" fill="none" xmlns="http://www.w3.org/2000/svg">
<path d="M23.5 33.25H4C3.13805 33.25 2.3114 33.5924 1.7019 34.2019C1.09241 34.8114 0.75 35.638 0.75 36.5V56C0.75 56.862 1.09241 57.6886 1.7019 58.2981C2.3114 58.9076 3.13805 59.25 4 59.25H23.5C24.362 59.25 25.1886 58.9076 25.7981 58.2981C26.4076 57.6886 26.75 56.862 26.75 56V36.5C26.75 35.638 26.4076 34.8114 25.7981 34.2019C25.1886 33.5924 24.362 33.25 23.5 33.25ZM20.25 52.75H7.25V39.75H20.25V52.75ZM56 0.75H36.5C35.638 0.75 34.8114 1.09241 34.2019 1.7019C33.5924 2.3114 33.25 3.13805 33.25 4V23.5C33.25 24.362 33.5924 25.1886 34.2019 25.7981C34.8114 26.4076 35.638 26.75 36.5 26.75H56C56.862 26.75 57.6886 26.4076 58.2981 25.7981C58.9076 25.1886 59.25 24.362 59.25 23.5V4C59.25 3.13805 58.9076 2.3114 58.2981 1.7019C57.6886 1.09241 56.862 0.75 56 0.75ZM52.75 20.25H39.75V7.25H52.75V20.25ZM56 43H49.5V36.5C49.5 35.638 49.1576 34.8114 48.5481 34.2019C47.9386 33.5924 47.112 33.25 46.25 33.25C45.388 33.25 44.5614 33.5924 43.9519 34.2019C43.3424 34.8114 43 35.638 43 36.5V43H36.5C35.638 43 34.8114 43.3424 34.2019 43.9519C33.5924 44.5614 33.25 45.388 33.25 46.25C33.25 47.112 33.5924 47.9386 34.2019 48.5481C34.8114 49.1576 35.638 49.5 36.5 49.5H43V56C43 56.862 43.3424 57.6886 43.9519 58.2981C44.5614 58.9076 45.388 59.25 46.25 59.25C47.112 59.25 47.9386 58.9076 48.5481 58.2981C49.1576 57.6886 49.5 56.862 49.5 56V49.5H56C56.862 49.5 57.6886 49.1576 58.2981 48.5481C58.9076 47.9386 59.25 47.112 59.25 46.25C59.25 45.388 58.9076 44.5614 58.2981 43.9519C57.6886 43.3424 56.862 43 56 43ZM23.5 0.75H4C3.13805 0.75 2.3114 1.09241 1.7019 1.7019C1.09241 2.3114 0.75 3.13805 0.75 4V23.5C0.75 24.362 1.09241 25.1886 1.7019 25.7981C2.3114 26.4076 3.13805 26.75 4 26.75H23.5C24.362 26.75 25.1886 26.4076 25.7981 25.7981C26.4076 25.1886 26.75 24.362 26.75 23.5V4C26.75 3.13805 26.4076 2.3114 25.7981 1.7019C25.1886 1.09241 24.362 0.75 23.5 0.75ZM20.25 20.25H7.25V7.25H20.25V20.25Z" fill="#5F6DFF"/>
</svg>
