<svg width="40" height="40" viewBox="0 0 40 40" fill="none" xmlns="http://www.w3.org/2000/svg">
<path fill-rule="evenodd" clip-rule="evenodd" d="M5.70159 0.833496H12.1799C14.8824 0.833496 17.0483 3.03766 17.0483 5.74208V12.276C17.0483 14.9977 14.8824 17.1827 12.1799 17.1827H5.70159C3.01825 17.1827 0.833252 14.9977 0.833252 12.276V5.74208C0.833252 3.03766 3.01825 0.833496 5.70159 0.833496ZM5.70159 22.8171H12.1799C14.8824 22.8171 17.0483 25.004 17.0483 27.7257V34.2596C17.0483 36.9621 14.8824 39.1663 12.1799 39.1663H5.70159C3.01825 39.1663 0.833252 36.9621 0.833252 34.2596V27.7257C0.833252 25.004 3.01825 22.8171 5.70159 22.8171ZM34.2984 0.833496H27.8201C25.1176 0.833496 22.9517 3.03766 22.9517 5.74208V12.276C22.9517 14.9977 25.1176 17.1827 27.8201 17.1827H34.2984C36.9817 17.1827 39.1667 14.9977 39.1667 12.276V5.74208C39.1667 3.03766 36.9817 0.833496 34.2984 0.833496ZM27.8201 22.8171H34.2984C36.9817 22.8171 39.1667 25.004 39.1667 27.7257V34.2596C39.1667 36.9621 36.9817 39.1663 34.2984 39.1663H27.8201C25.1176 39.1663 22.9517 36.9621 22.9517 34.2596V27.7257C22.9517 25.004 25.1176 22.8171 27.8201 22.8171Z" fill="#2DB45F"/>
</svg>
