<svg width="40" height="40" viewBox="0 0 40 40" fill="none" xmlns="http://www.w3.org/2000/svg">
<path d="M28.38 0H11.62C4.34 0 0 4.34 0 11.62V28.36C0 35.66 4.34 40 11.62 40H28.36C35.64 40 39.98 35.66 39.98 28.38V11.62C40 4.34 35.66 0 28.38 0ZM20 8C23.98 8 27.2 11.22 27.2 15.2C27.2 16.14 27.02 17.04 26.7 17.86C25.88 19.94 24.1 21.56 21.9 22.16C21.3 22.32 20.66 22.42 20 22.42C19.34 22.42 18.7 22.34 18.1 22.16C15.9 21.56 14.12 19.96 13.3 17.86C12.98 17.04 12.8 16.14 12.8 15.2C12.8 11.22 16.02 8 20 8ZM15.2 32C11.22 32 8 28.78 8 24.8C8 22.3273 9.25989 20.1441 11.1513 18.8472C11.4025 18.6749 11.7398 18.7942 11.8704 19.0693C12.9891 21.4254 15.105 23.1893 17.62 23.86C18.38 24.08 19.16 24.18 20 24.18C20.6184 24.18 21.2027 24.1231 21.77 24.0094C22.0645 23.9503 22.362 24.1418 22.3855 24.4412C22.3945 24.5548 22.4 24.6688 22.4 24.78C22.4 26.9 21.48 28.82 20 30.14C18.72 31.3 17.04 32 15.2 32ZM24.8 32C23.8629 32 22.9511 31.8234 22.1245 31.4903C21.8092 31.3632 21.7512 30.957 21.9763 30.7023C23.3997 29.092 24.2 26.9868 24.2 24.8C24.2 24.4 24.16 23.98 24.1 23.6L24.0968 23.58C24.063 23.3654 24.1721 23.1548 24.362 23.0494C25.9858 22.1476 27.3153 20.7718 28.112 19.0725C28.2416 18.7962 28.5792 18.6747 28.8317 18.8463C30.7395 20.143 32 22.3267 32 24.8C32 28.78 28.78 32 24.8 32Z" fill="#2DB45F"/>
</svg>
