<svg width="20" height="20" viewBox="0 0 20 20" fill="none" xmlns="http://www.w3.org/2000/svg">
<path d="M15.4019 1.70782L15.4019 1.70787L15.4106 1.71068C18.4462 2.6976 19.695 6.08619 18.7007 9.27602C18.1185 10.9411 17.17 12.4593 15.9318 13.6992C14.1262 15.447 12.152 17.0065 10.0314 18.3608C7.8982 17.0138 5.90767 15.4511 4.08052 13.6896C2.84899 12.4477 1.89931 10.9373 1.30762 9.27154C0.298906 6.08993 1.54072 2.69749 4.62203 1.6891L4.63652 1.68424C4.84575 1.61208 5.06088 1.55985 5.27647 1.52811H5.32996C5.37673 1.52811 5.42343 1.52472 5.46971 1.51797C5.70196 1.48409 5.93415 1.46811 6.16995 1.46811H6.26477C6.79442 1.48543 7.30452 1.5783 7.79926 1.74656C7.80955 1.75006 7.8199 1.75339 7.83029 1.75653C7.87328 1.77783 7.91792 1.79596 7.96386 1.81072C8.15429 1.8719 8.29885 1.92976 8.42345 1.99829C8.44668 2.01107 8.47044 2.02289 8.49464 2.03372L8.83107 2.18422C8.83688 2.18787 8.84382 2.19234 8.85198 2.19774C8.87605 2.21367 8.90397 2.23325 8.93826 2.25793C8.94687 2.26412 8.96112 2.27446 8.97703 2.286C9.00194 2.30405 9.03089 2.32505 9.04864 2.33773C9.08412 2.36311 9.13853 2.40153 9.19584 2.43649L9.20805 2.44382C9.23624 2.46045 9.26016 2.4745 9.28064 2.48653C9.35967 2.53295 9.38737 2.54922 9.41098 2.56732C9.75797 2.83335 10.2402 2.83373 10.5876 2.56825C11.5319 1.8467 12.6726 1.45967 13.8429 1.46809V1.46811H13.8499C14.3908 1.46811 14.9152 1.54449 15.4019 1.70782Z" stroke="#939292" stroke-width="1.93591" stroke-linecap="round" stroke-linejoin="round"/>
</svg>
