<svg width="30" height="30" viewBox="0 0 30 30" fill="none" xmlns="http://www.w3.org/2000/svg">
<path d="M23.5648 1.24676C22.6663 0.945262 21.7213 0.811763 20.7748 0.811763C18.6898 0.796763 16.6663 1.48676 14.9999 2.76024C14.8649 2.65674 14.6999 2.56524 14.5499 2.47675C14.3999 2.38525 14.1299 2.16175 13.9049 2.04175L13.3349 1.78675C13.0349 1.62175 12.7214 1.50176 12.3899 1.39526C12.3599 1.36676 12.3149 1.33526 12.2549 1.30676H12.1664C11.2799 1.00526 10.3649 0.840263 9.41993 0.811763H9.25493C8.83493 0.811763 8.41644 0.840263 7.99494 0.901762H7.81494C7.36495 0.960261 6.91645 1.06526 6.48146 1.21526C0.885016 3.04674 -1.10996 9.12168 0.585019 14.4316C1.54501 17.1451 3.09149 19.6066 5.10147 21.63C8.02494 24.45 11.2214 26.94 14.6549 29.07L14.6724 29.0808C14.901 29.2224 15.1897 29.224 15.4199 29.085C18.8413 26.94 22.0198 24.45 24.9163 21.645C26.9397 19.6216 28.4847 17.1451 29.4297 14.4316C31.0962 9.12168 29.1012 3.04674 23.5648 1.24676Z" fill="#FE3B2E"/>
</svg>
