<svg width="18" height="19" viewBox="0 0 18 19" fill="none" xmlns="http://www.w3.org/2000/svg">
<path d="M3.54567 5.1629C3.33045 5.10612 3.15157 4.95667 3.05741 4.75499C2.96325 4.5533 2.96354 4.32021 3.0582 4.11875L4.71895 0.584365C4.84271 0.320979 5.10766 0.152962 5.39867 0.153321C5.68969 0.153681 5.95422 0.322354 6.07733 0.586045L6.80996 2.15528C6.83615 2.14499 6.8632 2.13606 6.89103 2.1286C11.2384 0.963733 15.7069 3.54364 16.8718 7.89099C18.0366 12.2383 15.4567 16.7069 11.1094 17.8717C6.76204 19.0366 2.2935 16.4567 1.12864 12.1094C0.758214 10.7269 0.766547 9.33003 1.09098 8.0313C1.19137 7.62943 1.59853 7.38504 2.00039 7.48543C2.40225 7.58581 2.64665 7.99297 2.54626 8.39484C2.28197 9.45283 2.27468 10.5909 2.57753 11.7211C3.52798 15.2683 7.17401 17.3733 10.7212 16.4229C14.2683 15.4724 16.3733 11.8264 15.4229 8.27922C14.488 4.79007 10.9449 2.69626 7.45332 3.53331L8.19251 5.11661C8.31562 5.3803 8.27507 5.69141 8.08849 5.91474C7.90192 6.13807 7.60299 6.23331 7.3216 6.15907L3.54567 5.1629Z" fill="black"/>
</svg>
