<svg width="32" height="38" viewBox="0 0 32 38" fill="none" xmlns="http://www.w3.org/2000/svg">
<path d="M27.99 4.55321L17.9066 0.776543C16.8616 0.391543 15.1566 0.391543 14.1116 0.776543L4.0283 4.55321C2.08497 5.28654 0.508301 7.55988 0.508301 9.63154V24.4815C0.508301 25.9665 1.47997 27.9282 2.67163 28.8082L12.755 36.3432C14.5333 37.6815 17.4483 37.6815 19.2266 36.3432L29.31 28.8082C30.5016 27.9099 31.4733 25.9665 31.4733 24.4815V9.63154C31.4916 7.55988 29.915 5.28654 27.99 4.55321ZM22.38 14.8199L14.4966 22.7032C14.2216 22.9782 13.8733 23.1065 13.525 23.1065C13.1766 23.1065 12.8283 22.9782 12.5533 22.7032L9.61997 19.7332C9.0883 19.2015 9.0883 18.3215 9.61997 17.7899C10.1516 17.2582 11.0316 17.2582 11.5633 17.7899L13.5433 19.7699L20.455 12.8582C20.9866 12.3265 21.8666 12.3265 22.3983 12.8582C22.93 13.3899 22.93 14.2882 22.38 14.8199Z" fill="white"/>
</svg>
