<svg width="20" height="20" viewBox="0 0 20 20" fill="none" xmlns="http://www.w3.org/2000/svg">
<path fill-rule="evenodd" clip-rule="evenodd" d="M18.3991 7.14587L19.1193 7.86587C19.6895 8.42587 19.9996 9.18587 19.9996 9.98587C20.0096 10.7859 19.6995 11.5469 19.1393 12.1159C19.1327 12.1232 19.126 12.1296 19.1193 12.1361C19.116 12.1393 19.1127 12.1425 19.1093 12.1459L18.3991 12.8559C18.119 13.1359 17.9589 13.5159 17.9589 13.9169V14.9459C17.9589 16.6059 16.6084 17.9569 14.9478 17.9569H13.9174C13.5173 17.9569 13.1372 18.1159 12.8571 18.3959L12.1368 19.1159C11.5466 19.7069 10.7763 19.9959 10.006 19.9959C9.23574 19.9959 8.46546 19.7069 7.87525 19.1269L7.14498 18.3959C6.86488 18.1159 6.48474 17.9569 6.0846 17.9569H5.05423C3.39362 17.9569 2.04313 16.6059 2.04313 14.9459V13.9169C2.04313 13.5159 1.88308 13.1359 1.60297 12.8459L0.882714 12.1359C-0.28771 10.9669 -0.297714 9.05587 0.87271 7.87687L1.60297 7.14587C1.88308 6.86587 2.04313 6.48587 2.04313 6.07587V5.05587C2.04313 3.39587 3.39362 2.04687 5.05423 2.04687H6.0846C6.48474 2.04687 6.86488 1.88587 7.14498 1.60587L7.86524 0.885867C9.03567 -0.293134 10.9464 -0.293133 12.1268 0.876867L12.8571 1.60587C13.1372 1.88587 13.5173 2.04687 13.9174 2.04687H14.9478C16.6084 2.04687 17.9589 3.39587 17.9589 5.05587V6.08687C17.9589 6.48587 18.119 6.86587 18.3991 7.14587ZM7.42509 13.4459C7.66517 13.4459 7.88525 13.3559 8.04531 13.1859L13.1872 8.04687C13.5273 7.70687 13.5273 7.14587 13.1872 6.80587C12.8471 6.46687 12.2969 6.46687 11.9567 6.80587L6.81486 11.9459C6.47474 12.2859 6.47474 12.8459 6.81486 13.1859C6.97492 13.3559 7.195 13.4459 7.42509 13.4459ZM11.6966 12.5659C11.6966 13.0559 12.0868 13.4459 12.577 13.4459C13.0571 13.4459 13.4473 13.0559 13.4473 12.5659C13.4473 12.0869 13.0571 11.6959 12.577 11.6959C12.0868 11.6959 11.6966 12.0869 11.6966 12.5659ZM7.43509 6.55587C7.91526 6.55587 8.3054 6.94587 8.3054 7.42587C8.3054 7.91687 7.91526 8.30587 7.43509 8.30587C6.95492 8.30587 6.55477 7.91687 6.55477 7.42587C6.55477 6.94587 6.95492 6.55587 7.43509 6.55587Z" fill="#939292"/>
</svg>
