<svg width="56" height="56" viewBox="0 0 56 56" fill="none" xmlns="http://www.w3.org/2000/svg">
<path d="M39.5225 0.5H16.4775C6.4675 0.5 0.5 6.4675 0.5 16.4775V39.495C0.5 49.5325 6.4675 55.5 16.4775 55.5H39.495C49.505 55.5 55.4725 49.5325 55.4725 39.5225V16.4775C55.5 6.4675 49.5325 0.5 39.5225 0.5ZM45.9025 31.2725C45.9025 32.9225 44.6375 33.7475 43.125 33.0875L33.9125 29.1275C32.84 28.6875 31.9875 29.2375 31.9875 30.3925V35.48C31.9875 35.92 32.235 36.5525 32.565 36.8825L37.075 41.42C37.5425 41.8875 37.7625 42.8225 37.5425 43.455L36.6625 46.095C36.2775 47.25 34.9575 47.8 33.885 47.25L29.2925 43.345C28.5775 42.7675 27.4225 42.7675 26.735 43.345L22.115 47.25C21.015 47.8 19.7225 47.25 19.3375 46.0675L18.4575 43.4275C18.2375 42.795 18.4575 41.86 18.925 41.3925L23.5175 36.8825C23.82 36.58 24.095 35.9475 24.095 35.48V30.3925C24.095 29.2375 23.215 28.66 22.17 29.1275L12.9575 33.0875C11.4175 33.7475 10.18 32.9225 10.18 31.2725V28.715C10.18 27.395 11.1975 25.855 12.4075 25.3325L23.2425 20.6575C23.6825 20.465 24.0675 19.8875 24.0675 19.3925V13.7C24.0675 11.83 25.415 9.6025 27.0925 8.7775C27.6975 8.475 28.385 8.475 28.99 8.7775C30.64 9.63 32.015 11.83 32.015 13.7V19.3925C32.015 19.8875 32.3725 20.465 32.84 20.6575L43.675 25.3325C44.9125 25.855 45.9025 27.395 45.9025 28.715V31.2725Z" fill="#2DB45F"/>
</svg>
