<svg width="47" height="47" viewBox="0 0 47 47" fill="none" xmlns="http://www.w3.org/2000/svg">
<path opacity="0.3" fill-rule="evenodd" clip-rule="evenodd" d="M9.33325 3.9165C8.50482 3.9165 7.83325 4.58808 7.83325 5.4165V14.1665C7.83325 14.9949 8.50483 15.6665 9.33325 15.6665H37.6666C38.495 15.6665 39.1666 14.9949 39.1666 14.1665V5.4165C39.1666 4.58808 38.495 3.9165 37.6666 3.9165H9.33325ZM21.0833 7.83317C20.2548 7.83317 19.5833 8.50474 19.5833 9.33317V10.2498C19.5833 11.0783 20.2548 11.7498 21.0833 11.7498H25.9166C26.745 11.7498 27.4166 11.0783 27.4166 10.2498V9.33317C27.4166 8.50474 26.745 7.83317 25.9166 7.83317H21.0833Z" fill="#2DB45F"/>
<path fill-rule="evenodd" clip-rule="evenodd" d="M9.33325 17.625C8.50482 17.625 7.83325 18.2966 7.83325 19.125V27.875C7.83325 28.7034 8.50483 29.375 9.33325 29.375H37.6666C38.495 29.375 39.1666 28.7034 39.1666 27.875V19.125C39.1666 18.2966 38.495 17.625 37.6666 17.625H9.33325ZM21.0833 21.5417C20.2548 21.5417 19.5833 22.2132 19.5833 23.0417V23.9583C19.5833 24.7868 20.2548 25.4583 21.0833 25.4583H25.9166C26.745 25.4583 27.4166 24.7868 27.4166 23.9583V23.0417C27.4166 22.2132 26.745 21.5417 25.9166 21.5417H21.0833ZM7.83325 32.8333C7.83325 32.0049 8.50482 31.3333 9.33325 31.3333H37.6666C38.495 31.3333 39.1666 32.0049 39.1666 32.8333V41.5833C39.1666 42.4118 38.495 43.0833 37.6666 43.0833H9.33325C8.50483 43.0833 7.83325 42.4118 7.83325 41.5833V32.8333ZM21.0833 35.25C20.2548 35.25 19.5833 35.9216 19.5833 36.75V37.6667C19.5833 38.4951 20.2548 39.1667 21.0833 39.1667H25.9166C26.745 39.1667 27.4166 38.4951 27.4166 37.6667V36.75C27.4166 35.9216 26.745 35.25 25.9166 35.25H21.0833Z" fill="#2DB45F"/>
</svg>
