<svg width="46" height="35" viewBox="0 0 46 35" fill="none" xmlns="http://www.w3.org/2000/svg">
<path fill-rule="evenodd" clip-rule="evenodd" d="M31.33 0.999962C30.5424 3.42484 27.1122 5.24996 23 5.24996C18.8878 5.24996 15.4576 3.42484 14.67 0.999962H13.3893C13.0863 0.61784 12.5412 0.505112 12.1063 0.756212L11.6841 0.999962H11.0001C10.4571 0.999962 10.0153 1.43265 10.0005 1.97202L0.956222 7.19371C0.477929 7.46985 0.314054 8.08145 0.590196 8.55974L4.9027 16.0292C5.17884 16.5075 5.79043 16.6714 6.26872 16.3952L10.0001 14.2409V34C10.0001 34.5522 10.4478 35 11.0001 35H35.0001C35.5524 35 36.0001 34.5522 36.0001 34V14.2397L39.7336 16.3952C40.2119 16.6714 40.8235 16.5075 41.0996 16.0292L45.4121 8.55974C45.6883 8.08145 45.5244 7.46986 45.0461 7.19371L35.9997 1.97074C35.9842 1.43197 35.5426 0.999962 35.0001 0.999962H34.3182L33.896 0.756212C33.4611 0.505112 32.916 0.61784 32.6131 0.999962H31.33Z" fill="#55B4E4"/>
</svg>
