<svg width="42" height="32" viewBox="0 0 42 32" fill="none" xmlns="http://www.w3.org/2000/svg">
<path fill-rule="evenodd" clip-rule="evenodd" d="M28.6358 0.333491C27.9139 2.5563 24.7696 4.22932 21 4.22932C17.2305 4.22932 14.0862 2.5563 13.3642 0.333491H12.1715C11.861 0.00180488 11.3524 -0.0852386 10.942 0.15172L10.6271 0.333491H10.0834C9.56913 0.333491 9.14551 0.721742 9.08968 1.22114L0.865402 5.96943C0.387109 6.24557 0.223233 6.85716 0.499376 7.33545L4.36917 14.0381C4.64531 14.5164 5.2569 14.6803 5.73519 14.4042L9.08344 12.471V30.5002C9.08344 31.0524 9.53115 31.5002 10.0834 31.5002H31.9168C32.4691 31.5002 32.9168 31.0524 32.9168 30.5002V12.4699L36.267 14.4042C36.7453 14.6803 37.3569 14.5164 37.633 14.0381L41.5028 7.33545C41.779 6.85716 41.6151 6.24557 41.1368 5.96943L32.9104 1.2199C32.854 0.721102 32.4306 0.333491 31.9168 0.333491H31.3751L31.0602 0.15172C30.6498 -0.0852386 30.1412 0.00180488 29.8307 0.333491H28.6358Z" fill="white"/>
</svg>
