<svg width="39" height="40" viewBox="0 0 39 40" fill="none" xmlns="http://www.w3.org/2000/svg">
<path d="M19.6951 16.8079H38.9999C38.718 14.8392 38.1445 12.9658 37.3204 11.2328H19.6951V5.65839H33.3379C29.8202 2.21429 25.0069 0.0883789 19.6951 0.0883789C8.92229 0.0883789 0.189453 8.82147 0.189453 19.5942C0.189453 30.3672 8.92229 39.1002 19.6951 39.1002C25.0055 39.1002 29.8176 36.9754 33.335 33.533H19.6951V27.9582H37.3197C38.1436 26.2253 38.7176 24.3516 38.9996 22.383H19.6951V16.8079ZM14.8151 25.5913L10.218 22.2506L5.62177 25.5905L7.37772 20.1868L2.78081 16.8461H8.46322L10.2192 11.4422L11.9742 16.8467H17.6566L13.0601 20.1868L14.8151 25.5913Z" fill="white"/>
</svg>
