<svg width="19" height="19" viewBox="0 0 19 19" fill="none" xmlns="http://www.w3.org/2000/svg">
<path d="M11.0912 1.02495L12.6097 4.06184C12.9134 4.59329 13.3689 4.9729 13.9763 5.04882L17.3168 5.50436C18.8353 5.73212 19.4427 7.55426 18.3038 8.61717L15.8743 10.9708C15.4188 11.4263 15.2669 12.0337 15.3429 12.5651L15.8743 15.9057C16.1021 17.4241 14.5836 18.563 13.217 17.8797L10.2561 16.2853C9.72463 15.9816 9.04132 15.9816 8.50987 16.2853L5.5489 17.8797C4.25823 18.563 2.66386 17.4241 2.96755 15.9057L3.49901 12.5651C3.57493 11.9577 3.42309 11.3504 2.96755 10.9708L0.53804 8.61717C-0.52487 7.55426 0.0825092 5.6562 1.52503 5.50436L4.86561 5.04882C5.47298 4.9729 6.00444 4.59329 6.2322 4.06184L7.75065 1.02495C8.43395 -0.34165 10.4079 -0.34165 11.0912 1.02495Z" fill="#FCA610"/>
</svg>
